<svg width="24" height="25" viewBox="0 0 24 25" fill="none" xmlns="http://www.w3.org/2000/svg">
<path d="M6.60059 0.950195H16.2002C16.2729 0.950195 16.3431 0.978839 16.3945 1.03027L22.8701 7.50586C22.9215 7.55729 22.9502 7.62747 22.9502 7.7002V22.0996C22.9502 23.1766 22.077 24.0498 21 24.0498H6.60059C5.52363 24.0498 4.65039 23.1766 4.65039 22.0996V2.90039C4.65039 1.82344 5.52363 0.950195 6.60059 0.950195Z" fill="white" stroke="#D5D7DA" stroke-width="0.9"/>
<path d="M16.2002 0.799999V5.3C16.2002 6.62548 17.2747 7.7 18.6002 7.7H23.1002" stroke="#D5D7DA" stroke-width="0.9"/>
<rect x="0.599609" y="11.4" width="15.6" height="9.4" rx="1.2" fill="#D92D20"/>
<path d="M2.89879 18.6V14.2364H4.62038C4.95135 14.2364 5.23331 14.2996 5.46626 14.426C5.69922 14.551 5.87678 14.725 5.99893 14.948C6.12251 15.1696 6.1843 15.4253 6.1843 15.7151C6.1843 16.0048 6.1218 16.2605 5.9968 16.4821C5.8718 16.7037 5.6907 16.8763 5.45348 16.9999C5.21768 17.1234 4.93217 17.1852 4.59695 17.1852H3.49964V16.4459H4.4478C4.62536 16.4459 4.77166 16.4153 4.88672 16.3543C5.0032 16.2918 5.08984 16.2058 5.14666 16.0965C5.2049 15.9857 5.23402 15.8585 5.23402 15.7151C5.23402 15.5702 5.2049 15.4438 5.14666 15.3358C5.08984 15.2264 5.0032 15.1419 4.88672 15.0822C4.77024 15.0212 4.62251 14.9906 4.44354 14.9906H3.82138V18.6H2.89879ZM8.33043 18.6H6.78356V14.2364H8.34322C8.78214 14.2364 9.15998 14.3237 9.47674 14.4984C9.7935 14.6717 10.0371 14.921 10.2076 15.2463C10.3794 15.5716 10.4654 15.9608 10.4654 16.4139C10.4654 16.8685 10.3794 17.2591 10.2076 17.5858C10.0371 17.9125 9.79208 18.1632 9.47248 18.3379C9.1543 18.5126 8.77362 18.6 8.33043 18.6ZM7.70614 17.8095H8.29208C8.56481 17.8095 8.79421 17.7612 8.98029 17.6646C9.16779 17.5666 9.30842 17.4153 9.40217 17.2108C9.49734 17.0048 9.54492 16.7392 9.54492 16.4139C9.54492 16.0915 9.49734 15.828 9.40217 15.6234C9.30842 15.4189 9.1685 15.2683 8.98242 15.1717C8.79634 15.0751 8.56694 15.0268 8.29421 15.0268H7.70614V17.8095ZM11.1488 18.6V14.2364H14.038V14.997H12.0714V16.0368H13.8462V16.7974H12.0714V18.6H11.1488Z" fill="white"/>
</svg>
