<svg width="72" height="74" viewBox="0 0 72 74" fill="none" xmlns="http://www.w3.org/2000/svg">
<path d="M34.2025 0.345099C35.3577 -0.115033 36.6416 -0.115033 37.7967 0.345099C41.5204 1.82802 42.2479 7.53851 46.6415 7.85643C49.7356 8.0803 52.7715 5.50103 55.8764 6.27424C57.1285 6.58611 58.21 7.38442 58.8878 8.49731C60.9643 11.9075 58.2845 16.9198 61.6713 19.7494C64.0243 21.7144 67.9123 21.4601 69.9582 23.8691C70.8196 24.8838 71.2429 26.2072 71.1322 27.5417C70.8048 31.5116 65.7434 33.994 66.8558 38.2724C67.6255 41.2339 70.873 43.3157 71.1322 46.4583C71.2429 47.7929 70.8196 49.1164 69.9582 50.1309C67.3873 53.1576 61.8287 52.1608 60.2257 56.2629C59.1 59.1422 60.5453 62.7806 58.8878 65.5026C58.21 66.6155 57.1285 67.414 55.8764 67.7259C52.0215 68.6856 48.1085 64.5445 44.399 66.8805C41.7505 68.5477 40.8015 72.4588 37.7967 73.6548C36.6416 74.1151 35.3577 74.1151 34.2025 73.6548C31.1977 72.4588 30.2487 68.5477 27.6002 66.8805C23.9365 64.5738 19.9125 68.6693 16.1229 67.7259C14.8707 67.414 13.7893 66.6155 13.1116 65.5026C11.0352 62.0926 13.7147 57.08 10.3279 54.2505C7.97514 52.2853 4.0869 52.5401 2.04116 50.1309C1.17969 49.1164 0.756522 47.7929 0.866819 46.4583C1.12656 43.3157 4.37348 41.2339 5.14346 38.2724C6.2445 34.0388 1.19015 31.4535 0.866819 27.5417C0.756522 26.2072 1.17969 24.8838 2.04116 23.8691C4.61161 20.8415 10.1699 21.8393 11.7734 17.7372C12.8991 14.8577 11.4541 11.2194 13.1116 8.49731C13.7893 7.38442 14.8707 6.58611 16.1229 6.27424C19.2277 5.50104 22.2636 8.08032 25.3576 7.85643C29.7513 7.5386 30.4789 1.82802 34.2025 0.345099Z" fill="#00874E"/>
<path d="M34.2025 0.345099C35.3577 -0.115033 36.6416 -0.115033 37.7967 0.345099C41.5204 1.82802 42.2479 7.53851 46.6415 7.85643C49.7356 8.0803 52.7715 5.50103 55.8764 6.27424C57.1285 6.58611 58.21 7.38442 58.8878 8.49731C60.9643 11.9075 58.2845 16.9198 61.6713 19.7494C64.0243 21.7144 67.9123 21.4601 69.9582 23.8691C70.8196 24.8838 71.2429 26.2072 71.1322 27.5417C70.8048 31.5116 65.7434 33.994 66.8558 38.2724C67.6255 41.2339 70.873 43.3157 71.1322 46.4583C71.2429 47.7929 70.8196 49.1164 69.9582 50.1309C67.3873 53.1576 61.8287 52.1608 60.2257 56.2629C59.1 59.1422 60.5453 62.7806 58.8878 65.5026C58.21 66.6155 57.1285 67.414 55.8764 67.7259C52.0215 68.6856 48.1085 64.5445 44.399 66.8805C41.7505 68.5477 40.8015 72.4588 37.7967 73.6548C36.6416 74.1151 35.3577 74.1151 34.2025 73.6548C31.1977 72.4588 30.2487 68.5477 27.6002 66.8805C23.9365 64.5738 19.9125 68.6693 16.1229 67.7259C14.8707 67.414 13.7893 66.6155 13.1116 65.5026C11.0352 62.0926 13.7147 57.08 10.3279 54.2505C7.97514 52.2853 4.0869 52.5401 2.04116 50.1309C1.17969 49.1164 0.756522 47.7929 0.866819 46.4583C1.12656 43.3157 4.37348 41.2339 5.14346 38.2724C6.2445 34.0388 1.19015 31.4535 0.866819 27.5417C0.756522 26.2072 1.17969 24.8838 2.04116 23.8691C4.61161 20.8415 10.1699 21.8393 11.7734 17.7372C12.8991 14.8577 11.4541 11.2194 13.1116 8.49731C13.7893 7.38442 14.8707 6.58611 16.1229 6.27424C19.2277 5.50104 22.2636 8.08032 25.3576 7.85643C29.7513 7.5386 30.4789 1.82802 34.2025 0.345099Z" fill="url(#paint0_linear_12_3709)" fill-opacity="0.8" style="mix-blend-mode:plus-lighter"/>
<path d="M35.2295 2.92285C35.7251 2.72548 36.2739 2.72553 36.7695 2.92285C37.1472 3.07325 37.5502 3.36798 38.0508 3.93555C38.594 4.55145 39.0371 5.22221 39.7197 6.16504C40.9083 7.80681 42.857 10.3647 46.4414 10.624C48.6823 10.7861 50.8464 9.92821 52.1465 9.4873C53.7307 8.95005 54.5376 8.80032 55.2061 8.9668C55.7414 9.10024 56.2156 9.44488 56.5176 9.94043C56.7362 10.2994 56.8878 10.7909 56.96 11.5566C57.0384 12.3888 57.0062 13.1893 57.0137 14.3584C57.0267 16.4018 57.1445 19.583 59.8926 21.8789C61.5885 23.2952 63.7981 23.878 65.0898 24.2881C66.5593 24.7546 67.3007 25.0941 67.7559 25.5684L67.8428 25.665C68.2241 26.1143 68.4173 26.7081 68.3672 27.3125L68.3662 27.3135C68.3314 27.7358 68.1643 28.2246 67.7754 28.8877C67.3516 29.6101 66.862 30.235 66.1875 31.1895C65.0061 32.8611 63.2691 35.5059 64.1699 38.9707C64.7207 41.0895 66.1474 42.846 66.9473 43.9375C67.9131 45.2555 68.3084 45.9853 68.3662 46.6865L68.3672 46.6875C68.4173 47.2919 68.2237 47.885 67.8428 48.334C67.5756 48.6486 67.1641 48.9421 66.4678 49.2461C65.7088 49.5774 64.9486 49.7927 63.8457 50.1631C61.9175 50.8106 58.9447 51.9157 57.6406 55.2529C56.836 57.3116 56.97 59.5963 56.9814 60.9648C56.9952 62.6186 56.8877 63.4517 56.5176 64.0596C56.2155 64.5553 55.7412 64.8998 55.2061 65.0332C54.816 65.1303 54.321 65.1267 53.5859 64.9619C52.7863 64.7826 52.0419 64.505 50.9385 64.1475C49.0167 63.5248 45.9524 62.6226 42.9199 64.5322C41.0134 65.7326 39.7624 67.7142 38.9648 68.8428C37.9937 70.217 37.4201 70.8175 36.7705 71.0762L36.7695 71.0771C36.274 71.2746 35.725 71.2746 35.2295 71.0771L35.2285 71.0762C34.5789 70.8175 34.0053 70.2169 33.0342 68.8428C32.2366 67.7142 30.9856 65.7326 29.0791 64.5322C26.0699 62.6376 22.9856 63.5367 21.0664 64.1484C19.9566 64.5022 19.203 64.7797 18.3975 64.959C17.6527 65.1247 17.1639 65.1251 16.7939 65.0332C16.3253 64.9165 15.9029 64.6383 15.6025 64.2383L15.4814 64.0596L15.4033 63.918C15.227 63.573 15.1032 63.1133 15.04 62.4434C14.9615 61.6111 14.9938 60.81 14.9863 59.6406C14.9732 57.5973 14.855 54.4168 12.1074 52.1211H12.1064C10.4104 50.7045 8.20087 50.1219 6.90918 49.7119C5.34163 49.2143 4.60303 48.8611 4.15625 48.335C3.77513 47.8861 3.58279 47.2918 3.63281 46.6865C3.69092 45.9851 4.08629 45.2551 5.05176 43.9375C5.85162 42.8459 7.27825 41.0893 7.8291 38.9707C8.72429 35.5283 6.98347 32.8668 5.81152 31.1943C5.13811 30.2333 4.64713 29.5996 4.22168 28.8721C3.82966 28.2016 3.66634 27.7181 3.63281 27.3135C3.58281 26.7085 3.77502 26.1141 4.15625 25.665C4.42335 25.3504 4.83519 25.0578 5.53125 24.7539C6.29003 24.4226 7.05037 24.2073 8.15332 23.8369C10.0814 23.1895 13.0539 22.0841 14.3584 18.7471C15.163 16.6884 15.0289 14.4038 15.0176 13.0352C15.0039 11.3816 15.1113 10.5484 15.4814 9.94043C15.7832 9.44479 16.2582 9.10022 16.7939 8.9668C17.4624 8.80051 18.2695 8.9501 19.8535 9.4873C21.1536 9.92824 23.317 10.7861 25.5576 10.624C29.1421 10.3647 31.0907 7.80682 32.2793 6.16504C32.9619 5.22223 33.4051 4.55145 33.9482 3.93555C34.4488 3.36797 34.8518 3.07325 35.2295 2.92285Z" stroke="#7DFFC8" stroke-opacity="0.1" stroke-width="5.55" stroke-linejoin="round"/>
<path d="M49.623 27.7498L31.123 46.2498L22.7139 37.8408" stroke="white" stroke-width="5.04545" stroke-linecap="round" stroke-linejoin="round"/>
<defs>
<linearGradient id="paint0_linear_12_3709" x1="35.9996" y1="0" x2="35.9996" y2="74" gradientUnits="userSpaceOnUse">
<stop stop-color="white" stop-opacity="0.6"/>
<stop offset="1" stop-color="white" stop-opacity="0.1"/>
</linearGradient>
</defs>
</svg>
