<svg width="446" height="201" viewBox="0 0 446 201" fill="none" xmlns="http://www.w3.org/2000/svg">
<rect x="154.48" y="82.2235" width="139.531" height="29.8994" fill="white"/>
<rect x="155.103" y="82.8464" width="138.285" height="28.6536" stroke="black" stroke-opacity="0.06" stroke-width="1.24581"/>
<rect x="154.48" y="90.9441" width="139.531" height="12.4581" fill="url(#paint0_linear_12_3469)"/>
<rect width="173.168" height="200.575" rx="14.9497" fill="white"/>
<rect x="0.622905" y="0.622905" width="171.922" height="199.33" rx="14.3268" stroke="black" stroke-opacity="0.08" stroke-width="1.24581"/>
<path d="M65.2065 98.3016L69.0677 100.583L65.2065 98.3016ZM94.95 92.4583L98.4848 95.2186L94.95 92.4583ZM151.938 95.402C154 96.7743 156.784 96.2152 158.157 94.1531C159.529 92.091 158.97 89.307 156.908 87.9347L151.938 95.402ZM13.2682 140.906L13.999 145.331C20.137 144.317 28.2318 143.334 37.6603 137.255C47.0041 131.231 57.3231 120.459 69.0677 100.583L65.2065 98.3016L61.3453 96.02C50.0057 115.21 40.5546 124.717 32.7999 129.716C25.1299 134.661 18.7977 135.447 12.5374 136.481L13.2682 140.906ZM65.2065 98.3016L69.0677 100.583C78.7816 84.1441 90.9448 81.4304 99.7056 84.3514C108.93 87.4272 115.846 97.0469 114.659 108.418L119.12 108.883L123.581 109.348C125.209 93.741 115.708 80.2318 102.543 75.8421C88.9136 71.2978 72.7129 76.7823 61.3453 96.02L65.2065 98.3016ZM119.12 108.883L114.659 108.418C114.093 113.845 111.729 116.3 109.406 117.34C106.841 118.489 103.389 118.335 100.213 116.74C97.0807 115.168 94.6995 112.433 93.9601 109.064C93.2402 105.783 93.9052 101.083 98.4848 95.2186L94.95 92.4583L91.4151 89.6979C85.6227 97.1155 83.7713 104.482 85.1988 110.986C86.6069 117.403 91.037 122.171 96.1889 124.757C101.296 127.321 107.6 127.978 113.073 125.526C118.787 122.967 122.74 117.409 123.581 109.348L119.12 108.883ZM94.95 92.4583L98.4848 95.2186C105.508 86.2254 115.339 84.0623 125.517 85.3232C135.827 86.6004 145.892 91.378 151.938 95.402L154.423 91.6683L156.908 87.9347C150.045 83.3673 138.671 77.9143 126.62 76.4214C114.438 74.9123 100.987 77.4399 91.4151 89.6979L94.95 92.4583Z" fill="url(#paint1_linear_12_3469)"/>
<rect x="275.324" width="170.676" height="200.575" rx="14.9497" fill="white"/>
<rect x="275.947" y="0.622905" width="169.43" height="199.33" rx="14.3268" stroke="black" stroke-opacity="0.08" stroke-width="1.24581"/>
<path d="M338.216 34.2687C338.598 34.2379 338.983 34.2839 339.347 34.4025C339.71 34.5205 340.046 34.7084 340.335 34.9562C340.623 35.2104 340.858 35.5186 341.027 35.8634C341.196 36.209 341.294 36.585 341.318 36.9689C341.341 37.3529 341.289 37.738 341.164 38.1017C341.038 38.4654 340.843 38.8012 340.587 39.089L340.582 39.0949L337.152 43.0685L336.859 43.4084L337.088 43.7941C339.306 47.5213 340.058 51.9405 339.199 56.1916C338.339 60.4426 335.929 64.2223 332.438 66.7951C328.946 69.3678 324.622 70.5498 320.307 70.1115C315.992 69.6731 311.995 67.6452 309.092 64.423C306.189 61.2007 304.588 57.0139 304.601 52.6769C304.614 48.3402 306.239 44.1631 309.161 40.9582C312.082 37.7531 316.092 35.749 320.41 35.3361C324.727 34.9233 329.044 36.1306 332.52 38.7238L332.987 39.0724L333.366 38.63L336.227 35.2951L336.231 35.2912C336.478 34.9981 336.781 34.7566 337.122 34.5812C337.462 34.4059 337.834 34.2995 338.216 34.2687ZM328.597 43.1193C326.432 41.7074 323.858 41.0576 321.282 41.2726C318.706 41.4876 316.276 42.5556 314.375 44.3068C312.473 46.0581 311.21 48.3939 310.785 50.9435C310.36 53.493 310.797 56.1116 312.027 58.3849C313.257 60.6583 315.21 62.4571 317.577 63.4962C319.943 64.5353 322.589 64.7552 325.095 64.1222C327.601 63.4891 329.824 62.0385 331.414 60.0002C333 57.9659 333.864 55.4622 333.871 52.883C333.903 51.6344 333.725 50.3889 333.344 49.1994L333.003 48.1339L332.277 48.9845L324.569 58.0177C324.257 58.3784 323.861 58.6577 323.417 58.8322C322.973 59.0066 322.493 59.0705 322.019 59.0187C321.545 58.9669 321.09 58.8006 320.694 58.5343C320.347 58.3013 320.054 57.9982 319.834 57.6447L319.746 57.4904L315.015 48.715C314.652 48.0303 314.575 47.2298 314.801 46.4884C315.028 45.7459 315.541 45.1236 316.226 44.7589C316.911 44.3945 317.713 44.3174 318.456 44.5441C319.198 44.7708 319.82 45.2827 320.185 45.9679V45.9689L322.409 50.132L322.838 50.9367L323.431 50.2433L328.73 44.0461L329.191 43.507L328.597 43.1193Z" fill="#D2D1D6" stroke="white" stroke-width="1.24581"/>
<path d="M349.688 39.2028H397.16C397.936 39.2028 398.68 39.5108 399.229 40.0592C399.777 40.6077 400.086 41.3518 400.086 42.1276C400.086 42.9034 399.777 43.6474 399.229 44.1959C398.68 44.7445 397.936 45.0533 397.16 45.0533H349.688C348.912 45.0533 348.168 44.7444 347.619 44.1959C347.071 43.6474 346.763 42.9033 346.763 42.1276C346.763 41.3518 347.071 40.6077 347.619 40.0592C348.168 39.5107 348.912 39.2028 349.688 39.2028Z" fill="#D2D1D6" stroke="white" stroke-width="1.24581"/>
<path d="M349.688 51.9994H414.167C414.943 51.9994 415.687 52.3074 416.235 52.8558C416.784 53.4043 417.093 54.1484 417.093 54.9242C417.093 55.7 416.784 56.4439 416.235 56.9925C415.687 57.541 414.943 57.8499 414.167 57.8499H349.688C348.912 57.8499 348.168 57.541 347.619 56.9925C347.071 56.444 346.763 55.6999 346.763 54.9242C346.763 54.1484 347.071 53.4043 347.619 52.8558C348.168 52.3073 348.912 51.9994 349.688 51.9994Z" fill="#D2D1D6" stroke="white" stroke-width="1.24581"/>
<path d="M322.049 83.2458C326.681 83.252 331.122 85.0946 334.397 88.3698C337.666 91.639 339.509 96.0694 339.522 100.692C338.562 123.872 305.585 123.881 304.601 100.717C304.601 96.0876 306.439 91.6467 309.71 88.3708C312.982 85.0951 317.42 83.252 322.049 83.2458ZM326.497 89.9801C324.373 89.1006 322.036 88.8706 319.782 89.319C317.527 89.7675 315.457 90.8745 313.832 92.4997C312.206 94.125 311.099 96.1964 310.651 98.4508C310.203 100.705 310.432 103.042 311.312 105.166C312.192 107.289 313.681 109.104 315.592 110.381C317.33 111.542 319.347 112.209 321.426 112.321V112.458H322.049C323.586 112.458 325.108 112.153 326.526 111.561C327.944 110.969 329.231 110.102 330.312 109.009C331.393 107.917 332.246 106.621 332.823 105.197C333.327 103.951 333.612 102.627 333.664 101.287L333.671 100.711C333.67 98.4146 332.988 96.1706 331.712 94.2614C330.435 92.3502 328.62 90.8598 326.497 89.9801Z" fill="#D2D1D6" stroke="white" stroke-width="1.24581"/>
<path d="M349.488 104.581H413.968C414.743 104.581 415.488 104.889 416.036 105.438C416.585 105.986 416.894 106.73 416.894 107.506C416.894 108.282 416.585 109.026 416.036 109.574C415.488 110.123 414.744 110.432 413.968 110.432H349.488C348.713 110.432 347.968 110.123 347.42 109.574C346.871 109.026 346.563 108.282 346.563 107.506C346.564 106.73 346.871 105.986 347.42 105.438C347.968 104.889 348.713 104.581 349.488 104.581Z" fill="#D2D1D6" stroke="white" stroke-width="1.24581"/>
<path d="M349.488 90.3418H396.961C397.737 90.3418 398.481 90.6498 399.029 91.1982C399.578 91.7468 399.887 92.4909 399.887 93.2666C399.887 94.0424 399.578 94.7864 399.029 95.335C398.481 95.8835 397.737 96.1924 396.961 96.1924H349.488C348.713 96.1923 347.968 95.8835 347.42 95.335C346.871 94.7864 346.563 94.0423 346.563 93.2666C346.564 92.4909 346.871 91.7468 347.42 91.1982C347.968 90.6497 348.713 90.3418 349.488 90.3418Z" fill="#D2D1D6" stroke="white" stroke-width="1.24581"/>
<path d="M322.049 130.553C326.681 130.559 331.122 132.402 334.397 135.677C337.666 138.946 339.509 143.377 339.522 147.999C338.562 171.179 305.585 171.188 304.601 148.025C304.601 143.395 306.439 138.954 309.71 135.678C312.982 132.402 317.42 130.559 322.049 130.553ZM326.497 137.287C324.373 136.408 322.036 136.178 319.782 136.626C317.527 137.075 315.457 138.182 313.832 139.807C312.206 141.432 311.099 143.504 310.651 145.758C310.203 148.012 310.432 150.349 311.312 152.473C312.192 154.596 313.681 156.411 315.592 157.688C317.33 158.849 319.347 159.516 321.426 159.628V159.765H322.049C323.586 159.765 325.108 159.46 326.526 158.868C327.944 158.276 329.231 157.409 330.312 156.317C331.393 155.224 332.246 153.928 332.823 152.504C333.327 151.258 333.612 149.935 333.664 148.594L333.671 148.018C333.67 145.722 332.988 143.478 331.712 141.569C330.435 139.657 328.62 138.167 326.497 137.287Z" fill="#D2D1D6" stroke="white" stroke-width="1.24581"/>
<path d="M349.488 151.889H413.968C414.743 151.889 415.488 152.197 416.036 152.745C416.585 153.294 416.894 154.038 416.894 154.814C416.894 155.589 416.585 156.333 416.036 156.882C415.488 157.43 414.744 157.739 413.968 157.739H349.488C348.713 157.739 347.968 157.43 347.42 156.882C346.871 156.333 346.563 155.589 346.563 154.814C346.564 154.038 346.871 153.294 347.42 152.745C347.968 152.197 348.713 151.889 349.488 151.889Z" fill="#D2D1D6" stroke="white" stroke-width="1.24581"/>
<path d="M349.488 137.649H396.961C397.737 137.649 398.481 137.957 399.029 138.506C399.578 139.054 399.887 139.798 399.887 140.574C399.887 141.35 399.578 142.094 399.029 142.642C398.481 143.191 397.737 143.5 396.961 143.5H349.488C348.713 143.5 347.968 143.191 347.42 142.642C346.871 142.094 346.563 141.35 346.563 140.574C346.564 139.798 346.871 139.054 347.42 138.506C347.968 137.957 348.713 137.649 349.488 137.649Z" fill="#D2D1D6" stroke="white" stroke-width="1.24581"/>
<defs>
<linearGradient id="paint0_linear_12_3469" x1="154.48" y1="97.1732" x2="294.011" y2="97.1732" gradientUnits="userSpaceOnUse">
<stop stop-color="#6D56FA"/>
<stop offset="1" stop-color="#6D56FA" stop-opacity="0"/>
</linearGradient>
<linearGradient id="paint1_linear_12_3469" x1="24.1627" y1="137.107" x2="140.657" y2="106.868" gradientUnits="userSpaceOnUse">
<stop stop-color="#6D56FA" stop-opacity="0"/>
<stop offset="1" stop-color="#6D56FA"/>
</linearGradient>
</defs>
</svg>
